GRF
version=1
nRows=8
nColumns=28
inDegrees=no
endheader
time	plate1_ground_force_vx	plate1_ground_force_vy	plate1_ground_force_vz	plate1_ground_force_px	plate1_ground_force_py	plate1_ground_force_pz	plate1_ground_torque_x	plate1_ground_torque_y	plate1_ground_torque_z	plate2_ground_force_vx	plate2_ground_force_vy	plate2_ground_force_vz	plate2_ground_force_px	plate2_ground_force_py	plate2_ground_force_pz	plate2_ground_torque_x	plate2_ground_torque_y	plate2_ground_torque_z	plate3_ground_force_vx	plate3_ground_force_vy	plate3_ground_force_vz	plate3_ground_force_px	plate3_ground_force_py	plate3_ground_force_pz	plate3_ground_torque_x	plate3_ground_torque_y	plate3_ground_torque_z
      1.26000000	      0.00000000	      0.00000000	      0.00000000	      0.00000000	      0.00000000	      0.00000000	      0.00000000	      0.00000000	      0.00000000	     53.09098383	    602.17412271	     16.33725955	      1.03621923	      0.00000000	      0.13169756	     -0.00000000	     -2.48264428	      0.00000000	      0.00000000	      0.00000000	      0.00000000	      0.00000000	      0.00000000	      0.00000000	      0.00000000	      0.00000000	      0.00000000
      1.27000000	      0.00000000	      0.00000000	      0.00000000	      0.00000000	      0.00000000	      0.00000000	      0.00000000	      0.00000000	      0.00000000	     60.61754836	    617.50322918	     15.85329021	      1.03779866	      0.00000000	      0.13252328	     -0.00000000	     -2.56448809	      0.00000000	      0.00000000	      0.00000000	      0.00000000	      0.00000000	      0.00000000	      0.00000000	      0.00000000	      0.00000000	      0.00000000
      1.28000000	      0.00000000	      0.00000000	      0.00000000	      0.00000000	      0.00000000	      0.00000000	      0.00000000	      0.00000000	      0.00000000	     68.57622767	    630.32329463	     15.02591574	      1.03934311	      0.00000000	      0.13337383	     -0.00000000	     -2.62623730	      0.00000000	      0.00000000	      0.00000000	      0.00000000	      0.00000000	      0.00000000	      0.00000000	      0.00000000	      0.00000000	      0.00000000
      1.29000000	      0.00000000	      0.00000000	      0.00000000	      0.00000000	      0.00000000	      0.00000000	      0.00000000	      0.00000000	      0.00000000	     76.85216244	    639.80870311	     13.95517719	      1.04083749	      0.00000000	      0.13421760	     -0.00000000	     -2.65057022	      0.00000000	      0.00000000	      0.00000000	      0.00000000	      0.00000000	      0.00000000	      0.00000000	      0.00000000	      0.00000000	      0.00000000
      1.30000000	      0.00000000	      0.00000000	      0.00000000	      0.00000000	      0.00000000	      0.00000000	      0.00000000	      0.00000000	      0.00000000	     85.25309759	    645.01329345	     12.75690175	      1.04227991	      0.00000000	      0.13502539	     -0.00000000	     -2.62219825	      0.00000000	      0.00000000	      0.00000000	      0.00000000	      1.67149635	      0.00000000	      0.18133371	      0.00000000	      0.00000000	      0.00000000
      1.31000000	      0.00000000	      0.00000000	      0.00000000	      0.00000000	      0.00000000	      0.00000000	      0.00000000	      0.00000000	      0.00000000	     93.50676114	    644.87007646	     11.53480426	      1.04367632	      0.00000000	      0.13577579	     -0.00000000	     -2.53123922	      0.00000000	      0.00000000	      0.00000000	      0.00000000	      1.67149635	      0.00000000	      0.18133371	      0.00000000	      0.00000000	      0.00000000
      1.32000000	      0.00000000	      0.00000000	      0.00000000	      0.00000000	      0.00000000	      0.00000000	      0.00000000	      0.00000000	      0.00000000	    101.25716338	    638.23383435	     10.35791503	      1.04503791	      0.00000000	      0.13645898	     -0.00000000	     -2.37555241	      0.00000000	      0.00000000	      0.00000000	      0.00000000	      1.67149635	      0.00000000	      0.18133371	      0.00000000	      0.00000000	      0.00000000
      1.33000000	      0.00000000	      0.00000000	      0.00000000	      0.00000000	      0.00000000	      0.00000000	      0.00000000	      0.00000000	      0.00000000	    108.06197414	    623.97351561	      9.25143686	      1.04638639	      0.00000000	      0.13707829	     -0.00000000	     -2.16156813	      0.00000000	     -9.75783251	     69.36909456	      7.19405758	      1.67093227	      0.00000000	      0.18090688	      0.00000000	      0.51989339	     -0.00000000
